<mxfile host="app.diagrams.net" agent="Mozilla/5.0 (Windows NT 10.0; Win64; x64) AppleWebKit/537.36 (KHTML, like Gecko) Chrome/128.0.0.0 Safari/537.36 Edg/128.0.0.0" version="24.7.7" pages="2">
  <diagram name="第 1 页" id="dlCEMBuQ5NejJ4Esq9Jv">
    <mxGraphModel dx="2213" dy="1926" grid="1" gridSize="10" guides="1" tooltips="1" connect="1" arrows="1" fold="1" page="1" pageScale="1" pageWidth="827" pageHeight="1169" background="#FFFFFF" math="0" shadow="0">
      <root>
        <mxCell id="0" />
        <mxCell id="1" parent="0" />
        <mxCell id="BfCgXnBFmum-YGEtXY9E-1" value="" style="rounded=0;whiteSpace=wrap;html=1;" parent="1" vertex="1">
          <mxGeometry x="-247" y="335" width="120" height="60" as="geometry" />
        </mxCell>
        <mxCell id="BfCgXnBFmum-YGEtXY9E-2" value="" style="shape=table;startSize=0;container=1;collapsible=0;childLayout=tableLayout;fontSize=16;" parent="1" vertex="1">
          <mxGeometry x="-237" y="505" width="290" height="120" as="geometry" />
        </mxCell>
        <mxCell id="BfCgXnBFmum-YGEtXY9E-3" value="" style="shape=tableRow;horizontal=0;startSize=0;swimlaneHead=0;swimlaneBody=0;strokeColor=inherit;top=0;left=0;bottom=0;right=0;collapsible=0;dropTarget=0;fillColor=none;points=[[0,0.5],[1,0.5]];portConstraint=eastwest;fontSize=16;" parent="BfCgXnBFmum-YGEtXY9E-2" vertex="1">
          <mxGeometry width="290" height="40" as="geometry" />
        </mxCell>
        <mxCell id="BfCgXnBFmum-YGEtXY9E-4" value="" style="shape=partialRectangle;html=1;whiteSpace=wrap;connectable=0;strokeColor=inherit;overflow=hidden;fillColor=none;top=0;left=0;bottom=0;right=0;pointerEvents=1;fontSize=16;" parent="BfCgXnBFmum-YGEtXY9E-3" vertex="1">
          <mxGeometry width="97" height="40" as="geometry">
            <mxRectangle width="97" height="40" as="alternateBounds" />
          </mxGeometry>
        </mxCell>
        <mxCell id="BfCgXnBFmum-YGEtXY9E-5" value="" style="shape=partialRectangle;html=1;whiteSpace=wrap;connectable=0;strokeColor=inherit;overflow=hidden;fillColor=none;top=0;left=0;bottom=0;right=0;pointerEvents=1;fontSize=16;" parent="BfCgXnBFmum-YGEtXY9E-3" vertex="1">
          <mxGeometry x="97" width="96" height="40" as="geometry">
            <mxRectangle width="96" height="40" as="alternateBounds" />
          </mxGeometry>
        </mxCell>
        <mxCell id="BfCgXnBFmum-YGEtXY9E-6" value="" style="shape=partialRectangle;html=1;whiteSpace=wrap;connectable=0;strokeColor=inherit;overflow=hidden;fillColor=none;top=0;left=0;bottom=0;right=0;pointerEvents=1;fontSize=16;" parent="BfCgXnBFmum-YGEtXY9E-3" vertex="1">
          <mxGeometry x="193" width="97" height="40" as="geometry">
            <mxRectangle width="97" height="40" as="alternateBounds" />
          </mxGeometry>
        </mxCell>
        <mxCell id="BfCgXnBFmum-YGEtXY9E-7" value="" style="shape=tableRow;horizontal=0;startSize=0;swimlaneHead=0;swimlaneBody=0;strokeColor=inherit;top=0;left=0;bottom=0;right=0;collapsible=0;dropTarget=0;fillColor=none;points=[[0,0.5],[1,0.5]];portConstraint=eastwest;fontSize=16;" parent="BfCgXnBFmum-YGEtXY9E-2" vertex="1">
          <mxGeometry y="40" width="290" height="40" as="geometry" />
        </mxCell>
        <mxCell id="BfCgXnBFmum-YGEtXY9E-8" value="" style="shape=partialRectangle;html=1;whiteSpace=wrap;connectable=0;strokeColor=inherit;overflow=hidden;fillColor=none;top=0;left=0;bottom=0;right=0;pointerEvents=1;fontSize=16;" parent="BfCgXnBFmum-YGEtXY9E-7" vertex="1">
          <mxGeometry width="97" height="40" as="geometry">
            <mxRectangle width="97" height="40" as="alternateBounds" />
          </mxGeometry>
        </mxCell>
        <mxCell id="BfCgXnBFmum-YGEtXY9E-9" value="" style="shape=partialRectangle;html=1;whiteSpace=wrap;connectable=0;strokeColor=inherit;overflow=hidden;fillColor=none;top=0;left=0;bottom=0;right=0;pointerEvents=1;fontSize=16;" parent="BfCgXnBFmum-YGEtXY9E-7" vertex="1">
          <mxGeometry x="97" width="96" height="40" as="geometry">
            <mxRectangle width="96" height="40" as="alternateBounds" />
          </mxGeometry>
        </mxCell>
        <mxCell id="BfCgXnBFmum-YGEtXY9E-10" value="" style="shape=partialRectangle;html=1;whiteSpace=wrap;connectable=0;strokeColor=inherit;overflow=hidden;fillColor=none;top=0;left=0;bottom=0;right=0;pointerEvents=1;fontSize=16;" parent="BfCgXnBFmum-YGEtXY9E-7" vertex="1">
          <mxGeometry x="193" width="97" height="40" as="geometry">
            <mxRectangle width="97" height="40" as="alternateBounds" />
          </mxGeometry>
        </mxCell>
        <mxCell id="BfCgXnBFmum-YGEtXY9E-11" value="" style="shape=tableRow;horizontal=0;startSize=0;swimlaneHead=0;swimlaneBody=0;strokeColor=inherit;top=0;left=0;bottom=0;right=0;collapsible=0;dropTarget=0;fillColor=none;points=[[0,0.5],[1,0.5]];portConstraint=eastwest;fontSize=16;" parent="BfCgXnBFmum-YGEtXY9E-2" vertex="1">
          <mxGeometry y="80" width="290" height="40" as="geometry" />
        </mxCell>
        <mxCell id="BfCgXnBFmum-YGEtXY9E-12" value="" style="shape=partialRectangle;html=1;whiteSpace=wrap;connectable=0;strokeColor=inherit;overflow=hidden;fillColor=none;top=0;left=0;bottom=0;right=0;pointerEvents=1;fontSize=16;" parent="BfCgXnBFmum-YGEtXY9E-11" vertex="1">
          <mxGeometry width="97" height="40" as="geometry">
            <mxRectangle width="97" height="40" as="alternateBounds" />
          </mxGeometry>
        </mxCell>
        <mxCell id="BfCgXnBFmum-YGEtXY9E-13" value="" style="shape=partialRectangle;html=1;whiteSpace=wrap;connectable=0;strokeColor=inherit;overflow=hidden;fillColor=none;top=0;left=0;bottom=0;right=0;pointerEvents=1;fontSize=16;" parent="BfCgXnBFmum-YGEtXY9E-11" vertex="1">
          <mxGeometry x="97" width="96" height="40" as="geometry">
            <mxRectangle width="96" height="40" as="alternateBounds" />
          </mxGeometry>
        </mxCell>
        <mxCell id="BfCgXnBFmum-YGEtXY9E-14" value="" style="shape=partialRectangle;html=1;whiteSpace=wrap;connectable=0;strokeColor=inherit;overflow=hidden;fillColor=none;top=0;left=0;bottom=0;right=0;pointerEvents=1;fontSize=16;" parent="BfCgXnBFmum-YGEtXY9E-11" vertex="1">
          <mxGeometry x="193" width="97" height="40" as="geometry">
            <mxRectangle width="97" height="40" as="alternateBounds" />
          </mxGeometry>
        </mxCell>
        <mxCell id="BfCgXnBFmum-YGEtXY9E-15" value="" style="rounded=1;whiteSpace=wrap;html=1;strokeWidth=2;fillWeight=4;hachureGap=8;hachureAngle=45;fillColor=#1ba1e2;sketch=1;strokeColor=#FF5226;" parent="1" vertex="1">
          <mxGeometry x="83" y="395" width="120" height="60" as="geometry" />
        </mxCell>
        <mxCell id="BfCgXnBFmum-YGEtXY9E-16" value="Icon" style="icon;html=1;image=img/clipart/Gear_128x128.png" parent="1" vertex="1">
          <mxGeometry x="-467" y="535" width="60" height="60" as="geometry" />
        </mxCell>
        <mxCell id="BfCgXnBFmum-YGEtXY9E-17" value="" style="shape=image;html=1;verticalLabelPosition=bottom;verticalAlign=top;imageAspect=1;aspect=fixed;image=img/clipart/Gear_128x128.png" parent="1" vertex="1">
          <mxGeometry x="-347" y="615" width="52" height="61" as="geometry" />
        </mxCell>
        <mxCell id="BfCgXnBFmum-YGEtXY9E-18" value="" style="shape=tapeData;whiteSpace=wrap;html=1;perimeter=ellipsePerimeter;" parent="1" vertex="1">
          <mxGeometry x="-375" y="405" width="80" height="80" as="geometry" />
        </mxCell>
        <mxCell id="BfCgXnBFmum-YGEtXY9E-19" value="" style="edgeStyle=orthogonalEdgeStyle;rounded=0;orthogonalLoop=1;jettySize=auto;html=1;" parent="1" source="BfCgXnBFmum-YGEtXY9E-20" target="BfCgXnBFmum-YGEtXY9E-48" edge="1">
          <mxGeometry relative="1" as="geometry" />
        </mxCell>
        <mxCell id="BfCgXnBFmum-YGEtXY9E-20" value="" style="verticalLabelPosition=bottom;verticalAlign=top;html=1;shape=mxgraph.basic.donut;dx=25;" parent="1" vertex="1">
          <mxGeometry x="483" y="495" width="100" height="100" as="geometry" />
        </mxCell>
        <mxCell id="BfCgXnBFmum-YGEtXY9E-21" value="" style="edgeStyle=orthogonalEdgeStyle;rounded=0;orthogonalLoop=1;jettySize=auto;html=1;" parent="1" source="BfCgXnBFmum-YGEtXY9E-22" target="BfCgXnBFmum-YGEtXY9E-35" edge="1">
          <mxGeometry relative="1" as="geometry" />
        </mxCell>
        <mxCell id="BfCgXnBFmum-YGEtXY9E-22" value="Table" style="shape=table;startSize=30;container=1;collapsible=1;childLayout=tableLayout;fixedRows=1;rowLines=0;fontStyle=1;align=center;resizeLast=1;html=1;whiteSpace=wrap;" parent="1" vertex="1">
          <mxGeometry x="173" y="585" width="180" height="150" as="geometry" />
        </mxCell>
        <mxCell id="BfCgXnBFmum-YGEtXY9E-23" value="" style="shape=tableRow;horizontal=0;startSize=0;swimlaneHead=0;swimlaneBody=0;fillColor=none;collapsible=0;dropTarget=0;points=[[0,0.5],[1,0.5]];portConstraint=eastwest;top=0;left=0;right=0;bottom=0;html=1;" parent="BfCgXnBFmum-YGEtXY9E-22" vertex="1">
          <mxGeometry y="30" width="180" height="30" as="geometry" />
        </mxCell>
        <mxCell id="BfCgXnBFmum-YGEtXY9E-24" value="PK,FK1" style="shape=partialRectangle;connectable=0;fillColor=none;top=0;left=0;bottom=0;right=0;fontStyle=1;overflow=hidden;html=1;whiteSpace=wrap;" parent="BfCgXnBFmum-YGEtXY9E-23" vertex="1">
          <mxGeometry width="60" height="30" as="geometry">
            <mxRectangle width="60" height="30" as="alternateBounds" />
          </mxGeometry>
        </mxCell>
        <mxCell id="BfCgXnBFmum-YGEtXY9E-25" value="Row 1" style="shape=partialRectangle;connectable=0;fillColor=none;top=0;left=0;bottom=0;right=0;align=left;spacingLeft=6;fontStyle=5;overflow=hidden;html=1;whiteSpace=wrap;" parent="BfCgXnBFmum-YGEtXY9E-23" vertex="1">
          <mxGeometry x="60" width="120" height="30" as="geometry">
            <mxRectangle width="120" height="30" as="alternateBounds" />
          </mxGeometry>
        </mxCell>
        <mxCell id="BfCgXnBFmum-YGEtXY9E-26" value="" style="shape=tableRow;horizontal=0;startSize=0;swimlaneHead=0;swimlaneBody=0;fillColor=none;collapsible=0;dropTarget=0;points=[[0,0.5],[1,0.5]];portConstraint=eastwest;top=0;left=0;right=0;bottom=1;html=1;" parent="BfCgXnBFmum-YGEtXY9E-22" vertex="1">
          <mxGeometry y="60" width="180" height="30" as="geometry" />
        </mxCell>
        <mxCell id="BfCgXnBFmum-YGEtXY9E-27" value="PK,FK2" style="shape=partialRectangle;connectable=0;fillColor=none;top=0;left=0;bottom=0;right=0;fontStyle=1;overflow=hidden;html=1;whiteSpace=wrap;" parent="BfCgXnBFmum-YGEtXY9E-26" vertex="1">
          <mxGeometry width="60" height="30" as="geometry">
            <mxRectangle width="60" height="30" as="alternateBounds" />
          </mxGeometry>
        </mxCell>
        <mxCell id="BfCgXnBFmum-YGEtXY9E-28" value="Row 2" style="shape=partialRectangle;connectable=0;fillColor=none;top=0;left=0;bottom=0;right=0;align=left;spacingLeft=6;fontStyle=5;overflow=hidden;html=1;whiteSpace=wrap;" parent="BfCgXnBFmum-YGEtXY9E-26" vertex="1">
          <mxGeometry x="60" width="120" height="30" as="geometry">
            <mxRectangle width="120" height="30" as="alternateBounds" />
          </mxGeometry>
        </mxCell>
        <mxCell id="BfCgXnBFmum-YGEtXY9E-29" value="" style="shape=tableRow;horizontal=0;startSize=0;swimlaneHead=0;swimlaneBody=0;fillColor=none;collapsible=0;dropTarget=0;points=[[0,0.5],[1,0.5]];portConstraint=eastwest;top=0;left=0;right=0;bottom=0;html=1;" parent="BfCgXnBFmum-YGEtXY9E-22" vertex="1">
          <mxGeometry y="90" width="180" height="30" as="geometry" />
        </mxCell>
        <mxCell id="BfCgXnBFmum-YGEtXY9E-30" value="" style="shape=partialRectangle;connectable=0;fillColor=none;top=0;left=0;bottom=0;right=0;editable=1;overflow=hidden;html=1;whiteSpace=wrap;" parent="BfCgXnBFmum-YGEtXY9E-29" vertex="1">
          <mxGeometry width="60" height="30" as="geometry">
            <mxRectangle width="60" height="30" as="alternateBounds" />
          </mxGeometry>
        </mxCell>
        <mxCell id="BfCgXnBFmum-YGEtXY9E-31" value="Row 3" style="shape=partialRectangle;connectable=0;fillColor=none;top=0;left=0;bottom=0;right=0;align=left;spacingLeft=6;overflow=hidden;html=1;whiteSpace=wrap;" parent="BfCgXnBFmum-YGEtXY9E-29" vertex="1">
          <mxGeometry x="60" width="120" height="30" as="geometry">
            <mxRectangle width="120" height="30" as="alternateBounds" />
          </mxGeometry>
        </mxCell>
        <mxCell id="BfCgXnBFmum-YGEtXY9E-32" value="" style="shape=tableRow;horizontal=0;startSize=0;swimlaneHead=0;swimlaneBody=0;fillColor=none;collapsible=0;dropTarget=0;points=[[0,0.5],[1,0.5]];portConstraint=eastwest;top=0;left=0;right=0;bottom=0;html=1;" parent="BfCgXnBFmum-YGEtXY9E-22" vertex="1">
          <mxGeometry y="120" width="180" height="30" as="geometry" />
        </mxCell>
        <mxCell id="BfCgXnBFmum-YGEtXY9E-33" value="" style="shape=partialRectangle;connectable=0;fillColor=none;top=0;left=0;bottom=0;right=0;editable=1;overflow=hidden;html=1;whiteSpace=wrap;" parent="BfCgXnBFmum-YGEtXY9E-32" vertex="1">
          <mxGeometry width="60" height="30" as="geometry">
            <mxRectangle width="60" height="30" as="alternateBounds" />
          </mxGeometry>
        </mxCell>
        <mxCell id="BfCgXnBFmum-YGEtXY9E-34" value="Row 4" style="shape=partialRectangle;connectable=0;fillColor=none;top=0;left=0;bottom=0;right=0;align=left;spacingLeft=6;overflow=hidden;html=1;whiteSpace=wrap;" parent="BfCgXnBFmum-YGEtXY9E-32" vertex="1">
          <mxGeometry x="60" width="120" height="30" as="geometry">
            <mxRectangle width="120" height="30" as="alternateBounds" />
          </mxGeometry>
        </mxCell>
        <mxCell id="BfCgXnBFmum-YGEtXY9E-35" value="Table" style="shape=table;startSize=30;container=1;collapsible=1;childLayout=tableLayout;fixedRows=1;rowLines=0;fontStyle=1;align=center;resizeLast=1;html=1;whiteSpace=wrap;" parent="1" vertex="1">
          <mxGeometry x="423" y="705" width="180" height="150" as="geometry" />
        </mxCell>
        <mxCell id="BfCgXnBFmum-YGEtXY9E-36" value="" style="shape=tableRow;horizontal=0;startSize=0;swimlaneHead=0;swimlaneBody=0;fillColor=none;collapsible=0;dropTarget=0;points=[[0,0.5],[1,0.5]];portConstraint=eastwest;top=0;left=0;right=0;bottom=0;html=1;" parent="BfCgXnBFmum-YGEtXY9E-35" vertex="1">
          <mxGeometry y="30" width="180" height="30" as="geometry" />
        </mxCell>
        <mxCell id="BfCgXnBFmum-YGEtXY9E-37" value="PK,FK1" style="shape=partialRectangle;connectable=0;fillColor=none;top=0;left=0;bottom=0;right=0;fontStyle=1;overflow=hidden;html=1;whiteSpace=wrap;" parent="BfCgXnBFmum-YGEtXY9E-36" vertex="1">
          <mxGeometry width="60" height="30" as="geometry">
            <mxRectangle width="60" height="30" as="alternateBounds" />
          </mxGeometry>
        </mxCell>
        <mxCell id="BfCgXnBFmum-YGEtXY9E-38" value="Row 1" style="shape=partialRectangle;connectable=0;fillColor=none;top=0;left=0;bottom=0;right=0;align=left;spacingLeft=6;fontStyle=5;overflow=hidden;html=1;whiteSpace=wrap;" parent="BfCgXnBFmum-YGEtXY9E-36" vertex="1">
          <mxGeometry x="60" width="120" height="30" as="geometry">
            <mxRectangle width="120" height="30" as="alternateBounds" />
          </mxGeometry>
        </mxCell>
        <mxCell id="BfCgXnBFmum-YGEtXY9E-39" value="" style="shape=tableRow;horizontal=0;startSize=0;swimlaneHead=0;swimlaneBody=0;fillColor=none;collapsible=0;dropTarget=0;points=[[0,0.5],[1,0.5]];portConstraint=eastwest;top=0;left=0;right=0;bottom=1;html=1;" parent="BfCgXnBFmum-YGEtXY9E-35" vertex="1">
          <mxGeometry y="60" width="180" height="30" as="geometry" />
        </mxCell>
        <mxCell id="BfCgXnBFmum-YGEtXY9E-40" value="PK,FK2" style="shape=partialRectangle;connectable=0;fillColor=none;top=0;left=0;bottom=0;right=0;fontStyle=1;overflow=hidden;html=1;whiteSpace=wrap;" parent="BfCgXnBFmum-YGEtXY9E-39" vertex="1">
          <mxGeometry width="60" height="30" as="geometry">
            <mxRectangle width="60" height="30" as="alternateBounds" />
          </mxGeometry>
        </mxCell>
        <mxCell id="BfCgXnBFmum-YGEtXY9E-41" value="Row 2" style="shape=partialRectangle;connectable=0;fillColor=none;top=0;left=0;bottom=0;right=0;align=left;spacingLeft=6;fontStyle=5;overflow=hidden;html=1;whiteSpace=wrap;" parent="BfCgXnBFmum-YGEtXY9E-39" vertex="1">
          <mxGeometry x="60" width="120" height="30" as="geometry">
            <mxRectangle width="120" height="30" as="alternateBounds" />
          </mxGeometry>
        </mxCell>
        <mxCell id="BfCgXnBFmum-YGEtXY9E-42" value="" style="shape=tableRow;horizontal=0;startSize=0;swimlaneHead=0;swimlaneBody=0;fillColor=none;collapsible=0;dropTarget=0;points=[[0,0.5],[1,0.5]];portConstraint=eastwest;top=0;left=0;right=0;bottom=0;html=1;" parent="BfCgXnBFmum-YGEtXY9E-35" vertex="1">
          <mxGeometry y="90" width="180" height="30" as="geometry" />
        </mxCell>
        <mxCell id="BfCgXnBFmum-YGEtXY9E-43" value="" style="shape=partialRectangle;connectable=0;fillColor=none;top=0;left=0;bottom=0;right=0;editable=1;overflow=hidden;html=1;whiteSpace=wrap;" parent="BfCgXnBFmum-YGEtXY9E-42" vertex="1">
          <mxGeometry width="60" height="30" as="geometry">
            <mxRectangle width="60" height="30" as="alternateBounds" />
          </mxGeometry>
        </mxCell>
        <mxCell id="BfCgXnBFmum-YGEtXY9E-44" value="Row 3" style="shape=partialRectangle;connectable=0;fillColor=none;top=0;left=0;bottom=0;right=0;align=left;spacingLeft=6;overflow=hidden;html=1;whiteSpace=wrap;" parent="BfCgXnBFmum-YGEtXY9E-42" vertex="1">
          <mxGeometry x="60" width="120" height="30" as="geometry">
            <mxRectangle width="120" height="30" as="alternateBounds" />
          </mxGeometry>
        </mxCell>
        <mxCell id="BfCgXnBFmum-YGEtXY9E-45" value="" style="shape=tableRow;horizontal=0;startSize=0;swimlaneHead=0;swimlaneBody=0;fillColor=none;collapsible=0;dropTarget=0;points=[[0,0.5],[1,0.5]];portConstraint=eastwest;top=0;left=0;right=0;bottom=0;html=1;" parent="BfCgXnBFmum-YGEtXY9E-35" vertex="1">
          <mxGeometry y="120" width="180" height="30" as="geometry" />
        </mxCell>
        <mxCell id="BfCgXnBFmum-YGEtXY9E-46" value="" style="shape=partialRectangle;connectable=0;fillColor=none;top=0;left=0;bottom=0;right=0;editable=1;overflow=hidden;html=1;whiteSpace=wrap;" parent="BfCgXnBFmum-YGEtXY9E-45" vertex="1">
          <mxGeometry width="60" height="30" as="geometry">
            <mxRectangle width="60" height="30" as="alternateBounds" />
          </mxGeometry>
        </mxCell>
        <mxCell id="BfCgXnBFmum-YGEtXY9E-47" value="Row 4" style="shape=partialRectangle;connectable=0;fillColor=none;top=0;left=0;bottom=0;right=0;align=left;spacingLeft=6;overflow=hidden;html=1;whiteSpace=wrap;" parent="BfCgXnBFmum-YGEtXY9E-45" vertex="1">
          <mxGeometry x="60" width="120" height="30" as="geometry">
            <mxRectangle width="120" height="30" as="alternateBounds" />
          </mxGeometry>
        </mxCell>
        <mxCell id="BfCgXnBFmum-YGEtXY9E-48" value="" style="shape=trapezoid;perimeter=trapezoidPerimeter;whiteSpace=wrap;html=1;fixedSize=1;verticalAlign=top;" parent="1" vertex="1">
          <mxGeometry x="653" y="515" width="120" height="60" as="geometry" />
        </mxCell>
        <mxCell id="BfCgXnBFmum-YGEtXY9E-49" value="New" style="html=1;shadow=0;dashed=0;shape=mxgraph.bootstrap.rrect;rSize=5;strokeColor=none;strokeWidth=1;fillColor=#6C767D;fontColor=#FFFFFF;whiteSpace=wrap;align=left;verticalAlign=middle;spacingLeft=10;fontStyle=1;fontSize=18;" parent="1" vertex="1">
          <mxGeometry x="543" y="365" width="60" height="40" as="geometry" />
        </mxCell>
        <mxCell id="BfCgXnBFmum-YGEtXY9E-50" value="Light" style="html=1;shadow=0;dashed=0;shape=mxgraph.bootstrap.rrect;rSize=5;strokeColor=none;strokeWidth=1;fillColor=#F8F9FA;fontColor=#000000;whiteSpace=wrap;align=left;verticalAlign=middle;spacingLeft=0;fontStyle=1;fontSize=14;spacing=5;" parent="1" vertex="1">
          <mxGeometry x="653" y="365" width="45" height="20" as="geometry" />
        </mxCell>
        <mxCell id="BfCgXnBFmum-YGEtXY9E-51" value="Success" style="html=1;shadow=0;dashed=0;shape=mxgraph.bootstrap.rrect;rSize=5;strokeColor=none;strokeWidth=1;fillColor=#33A64C;fontColor=#ffffff;whiteSpace=wrap;align=left;verticalAlign=middle;fontStyle=0;fontSize=14;spacingLeft=10;" parent="1" vertex="1">
          <mxGeometry x="883" y="422" width="85" height="40" as="geometry" />
        </mxCell>
        <mxCell id="BfCgXnBFmum-YGEtXY9E-52" value="" style="shape=triangle;direction=south;fillColor=#ffffff;strokeColor=none;perimeter=none;" parent="BfCgXnBFmum-YGEtXY9E-51" vertex="1">
          <mxGeometry x="1" y="0.5" width="10" height="5" relative="1" as="geometry">
            <mxPoint x="-17" y="-2.5" as="offset" />
          </mxGeometry>
        </mxCell>
        <mxCell id="BfCgXnBFmum-YGEtXY9E-53" value="" style="swimlane;container=1;shape=mxgraph.bootstrap.rrect;rSize=5;strokeColor=#999999;fillColor=#ffffff;fontStyle=0;childLayout=stackLayout;horizontal=1;startSize=0;horizontalStack=0;resizeParent=1;resizeParentMax=0;resizeLast=0;collapsible=0;marginBottom=0;whiteSpace=wrap;html=1;marginTop=10;marginBottom=10;" parent="1" vertex="1">
          <mxGeometry x="883" y="465" width="170" height="150" as="geometry" />
        </mxCell>
        <mxCell id="BfCgXnBFmum-YGEtXY9E-54" value="Action" style="text;align=left;verticalAlign=middle;spacingLeft=20;spacingRight=10;overflow=hidden;points=[[0,0.5],[1,0.5]];portConstraint=eastwest;rotatable=0;whiteSpace=wrap;html=1;fontColor=inherit;fontSize=14;fontStyle=0;" parent="BfCgXnBFmum-YGEtXY9E-53" vertex="1">
          <mxGeometry y="10" width="170" height="30" as="geometry" />
        </mxCell>
        <mxCell id="BfCgXnBFmum-YGEtXY9E-55" value="Another Action" style="text;align=left;verticalAlign=middle;spacingLeft=20;spacingRight=10;overflow=hidden;points=[[0,0.5],[1,0.5]];portConstraint=eastwest;rotatable=0;whiteSpace=wrap;html=1;fontColor=inherit;fontSize=14;fontStyle=0;" parent="BfCgXnBFmum-YGEtXY9E-53" vertex="1">
          <mxGeometry y="40" width="170" height="30" as="geometry" />
        </mxCell>
        <mxCell id="BfCgXnBFmum-YGEtXY9E-56" value="Something else here" style="text;align=left;verticalAlign=middle;spacingLeft=20;spacingRight=10;overflow=hidden;points=[[0,0.5],[1,0.5]];portConstraint=eastwest;rotatable=0;whiteSpace=wrap;html=1;fontColor=inherit;fontSize=14;fontStyle=0;" parent="BfCgXnBFmum-YGEtXY9E-53" vertex="1">
          <mxGeometry y="70" width="170" height="30" as="geometry" />
        </mxCell>
        <mxCell id="BfCgXnBFmum-YGEtXY9E-57" value="" style="text;shape=line;strokeColor=inherit;align=center;verticalAlign=middle;spacingLeft=20;spacingRight=10;overflow=hidden;points=[[0,0.5],[1,0.5]];portConstraint=eastwest;rotatable=0;whiteSpace=wrap;html=1;fontColor=inherit;" parent="BfCgXnBFmum-YGEtXY9E-53" vertex="1">
          <mxGeometry y="100" width="170" height="10" as="geometry" />
        </mxCell>
        <mxCell id="BfCgXnBFmum-YGEtXY9E-58" value="Separated link" style="text;align=left;verticalAlign=middle;spacingLeft=20;spacingRight=10;overflow=hidden;points=[[0,0.5],[1,0.5]];portConstraint=eastwest;rotatable=0;whiteSpace=wrap;html=1;fontColor=inherit;fontSize=14;fontStyle=0;" parent="BfCgXnBFmum-YGEtXY9E-53" vertex="1">
          <mxGeometry y="110" width="170" height="30" as="geometry" />
        </mxCell>
        <mxCell id="BfCgXnBFmum-YGEtXY9E-59" value="" style="swimlane;fontStyle=0;childLayout=stackLayout;horizontal=1;startSize=0;horizontalStack=0;resizeParent=1;resizeParentMax=0;resizeLast=0;collapsible=0;marginBottom=0;whiteSpace=wrap;html=1;strokeColor=none;fillColor=none;" parent="1" vertex="1">
          <mxGeometry x="773" y="635" width="250" height="270" as="geometry" />
        </mxCell>
        <mxCell id="BfCgXnBFmum-YGEtXY9E-60" value="Dapibus ac facilisis in" style="text;strokeColor=#DFDFDF;fillColor=#FFFFFF;align=left;verticalAlign=middle;spacingLeft=10;spacingRight=10;overflow=hidden;points=[[0,0.5],[1,0.5]];portConstraint=eastwest;rotatable=0;whiteSpace=wrap;html=1;shape=mxgraph.bootstrap.topButton;rSize=5;fontColor=#000000;" parent="BfCgXnBFmum-YGEtXY9E-59" vertex="1">
          <mxGeometry width="250" height="30" as="geometry" />
        </mxCell>
        <mxCell id="BfCgXnBFmum-YGEtXY9E-61" value="A simple primary list group item" style="text;strokeColor=#A1C0DE;fillColor=#B8DCFE;fontColor=#004583;align=left;verticalAlign=middle;spacingLeft=10;spacingRight=10;overflow=hidden;points=[[0,0.5],[1,0.5]];portConstraint=eastwest;rotatable=0;whiteSpace=wrap;html=1;rSize=5;" parent="BfCgXnBFmum-YGEtXY9E-59" vertex="1">
          <mxGeometry y="30" width="250" height="30" as="geometry" />
        </mxCell>
        <mxCell id="BfCgXnBFmum-YGEtXY9E-62" value="A simple secondary list group item" style="text;strokeColor=#BBBDC0;fillColor=#D6D8DB;fontColor=#383D41;align=left;verticalAlign=middle;spacingLeft=10;spacingRight=10;overflow=hidden;points=[[0,0.5],[1,0.5]];portConstraint=eastwest;rotatable=0;whiteSpace=wrap;html=1;rSize=5;" parent="BfCgXnBFmum-YGEtXY9E-59" vertex="1">
          <mxGeometry y="60" width="250" height="30" as="geometry" />
        </mxCell>
        <mxCell id="BfCgXnBFmum-YGEtXY9E-63" value="A simple success list group item" style="text;strokeColor=#ABC9B2;fillColor=#C4E6CC;fontColor=#ABC9B2;align=left;verticalAlign=middle;spacingLeft=10;spacingRight=10;overflow=hidden;points=[[0,0.5],[1,0.5]];portConstraint=eastwest;rotatable=0;whiteSpace=wrap;html=1;rSize=5;" parent="BfCgXnBFmum-YGEtXY9E-59" vertex="1">
          <mxGeometry y="90" width="250" height="30" as="geometry" />
        </mxCell>
        <mxCell id="BfCgXnBFmum-YGEtXY9E-64" value="A simple danger list group item" style="text;strokeColor=#D5ACB2;fillColor=#F4C5CB;fontColor=#711623;align=left;verticalAlign=middle;spacingLeft=10;spacingRight=10;overflow=hidden;points=[[0,0.5],[1,0.5]];portConstraint=eastwest;rotatable=0;whiteSpace=wrap;html=1;rSize=5;" parent="BfCgXnBFmum-YGEtXY9E-59" vertex="1">
          <mxGeometry y="120" width="250" height="30" as="geometry" />
        </mxCell>
        <mxCell id="BfCgXnBFmum-YGEtXY9E-65" value="A simple warning list group item" style="text;strokeColor=#DFCEA4;fillColor=#FFECBC;fontColor=#856110;align=left;verticalAlign=middle;spacingLeft=10;spacingRight=10;overflow=hidden;points=[[0,0.5],[1,0.5]];portConstraint=eastwest;rotatable=0;whiteSpace=wrap;html=1;rSize=5;" parent="BfCgXnBFmum-YGEtXY9E-59" vertex="1">
          <mxGeometry y="150" width="250" height="30" as="geometry" />
        </mxCell>
        <mxCell id="BfCgXnBFmum-YGEtXY9E-66" value="A simple info list group item" style="text;strokeColor=#A7C9CE;fillColor=#BFE6EB;fontColor=#0E5560;align=left;verticalAlign=middle;spacingLeft=10;spacingRight=10;overflow=hidden;points=[[0,0.5],[1,0.5]];portConstraint=eastwest;rotatable=0;whiteSpace=wrap;html=1;rSize=5;" parent="BfCgXnBFmum-YGEtXY9E-59" vertex="1">
          <mxGeometry y="180" width="250" height="30" as="geometry" />
        </mxCell>
        <mxCell id="BfCgXnBFmum-YGEtXY9E-67" value="A simple light list group item" style="text;strokeColor=#DDDDDE;fillColor=#FDFDFE;fontColor=#818182;align=left;verticalAlign=middle;spacingLeft=10;spacingRight=10;overflow=hidden;points=[[0,0.5],[1,0.5]];portConstraint=eastwest;rotatable=0;whiteSpace=wrap;html=1;rSize=5;" parent="BfCgXnBFmum-YGEtXY9E-59" vertex="1">
          <mxGeometry y="210" width="250" height="30" as="geometry" />
        </mxCell>
        <mxCell id="BfCgXnBFmum-YGEtXY9E-68" value="A simple dark list group item" style="text;strokeColor=#ADAFB1;fillColor=#C6C8CA;fontColor=#1B1E21;align=left;verticalAlign=middle;spacingLeft=10;spacingRight=10;overflow=hidden;points=[[0,0.5],[1,0.5]];portConstraint=eastwest;rotatable=0;whiteSpace=wrap;html=1;shape=mxgraph.bootstrap.bottomButton;rSize=5;" parent="BfCgXnBFmum-YGEtXY9E-59" vertex="1">
          <mxGeometry y="240" width="250" height="30" as="geometry" />
        </mxCell>
        <mxCell id="BfCgXnBFmum-YGEtXY9E-69" value="" style="swimlane;fontStyle=0;childLayout=stackLayout;horizontal=1;startSize=0;horizontalStack=0;resizeParent=1;resizeParentMax=0;resizeLast=0;collapsible=0;marginBottom=0;whiteSpace=wrap;html=1;strokeColor=none;fillColor=none;" parent="1" vertex="1">
          <mxGeometry x="1113" y="440" width="300" height="300" as="geometry" />
        </mxCell>
        <mxCell id="BfCgXnBFmum-YGEtXY9E-70" value="&lt;font style=&quot;font-size: 16px&quot;&gt;List group item heading&lt;/font&gt;&lt;br&gt;&lt;br&gt;Donec id elit non mi porta gravida at eget metus. Maecenas sed diam eget risus varius blandit.&lt;br&gt;&lt;font style=&quot;font-size: 11px&quot;&gt;Donec id elit mi porta.&lt;/font&gt;" style="text;strokeColor=#0085FC;fillColor=#0085FC;align=left;verticalAlign=middle;spacingLeft=10;spacingRight=10;overflow=hidden;points=[[0,0.5],[1,0.5]];portConstraint=eastwest;rotatable=0;whiteSpace=wrap;html=1;shape=mxgraph.bootstrap.topButton;rSize=5;fontColor=#ffffff;" parent="BfCgXnBFmum-YGEtXY9E-69" vertex="1">
          <mxGeometry width="300" height="100" as="geometry" />
        </mxCell>
        <mxCell id="BfCgXnBFmum-YGEtXY9E-71" value="3 days ago" style="strokeColor=none;fillColor=none;fontColor=#ffffff;fontSize=11;" parent="BfCgXnBFmum-YGEtXY9E-70" vertex="1">
          <mxGeometry x="1" width="90" height="40" relative="1" as="geometry">
            <mxPoint x="-90" as="offset" />
          </mxGeometry>
        </mxCell>
        <mxCell id="BfCgXnBFmum-YGEtXY9E-72" value="&lt;font style=&quot;font-size: 16px&quot;&gt;List group item heading&lt;/font&gt;&lt;br&gt;&lt;br&gt;Donec id elit non mi porta gravida at eget metus. Maecenas sed diam eget risus varius blandit.&lt;br&gt;&lt;font style=&quot;font-size: 11px&quot;&gt;Donec id elit mi porta.&lt;/font&gt;" style="text;strokeColor=#DFDFDF;fillColor=#ffffff;align=left;verticalAlign=middle;spacingLeft=10;spacingRight=10;overflow=hidden;points=[[0,0.5],[1,0.5]];portConstraint=eastwest;rotatable=0;whiteSpace=wrap;html=1;fontColor=#495057;" parent="BfCgXnBFmum-YGEtXY9E-69" vertex="1">
          <mxGeometry y="100" width="300" height="100" as="geometry" />
        </mxCell>
        <mxCell id="BfCgXnBFmum-YGEtXY9E-73" value="3 days ago" style="strokeColor=none;fillColor=none;fontColor=#6C767D;fontSize=11;" parent="BfCgXnBFmum-YGEtXY9E-72" vertex="1">
          <mxGeometry x="1" width="90" height="40" relative="1" as="geometry">
            <mxPoint x="-90" as="offset" />
          </mxGeometry>
        </mxCell>
        <mxCell id="BfCgXnBFmum-YGEtXY9E-74" value="&lt;font style=&quot;font-size: 16px&quot;&gt;List group item heading&lt;/font&gt;&lt;br&gt;&lt;br&gt;Donec id elit non mi porta gravida at eget metus. Maecenas sed diam eget risus varius blandit.&lt;br&gt;&lt;font style=&quot;font-size: 11px&quot;&gt;Donec id elit mi porta.&lt;/font&gt;" style="text;strokeColor=#DFDFDF;fillColor=#ffffff;align=left;verticalAlign=middle;spacingLeft=10;spacingRight=10;overflow=hidden;points=[[0,0.5],[1,0.5]];portConstraint=eastwest;rotatable=0;whiteSpace=wrap;html=1;shape=mxgraph.bootstrap.bottomButton;rSize=5;fontColor=#495057;" parent="BfCgXnBFmum-YGEtXY9E-69" vertex="1">
          <mxGeometry y="200" width="300" height="100" as="geometry" />
        </mxCell>
        <mxCell id="BfCgXnBFmum-YGEtXY9E-75" value="3 days ago" style="strokeColor=none;fillColor=none;fontColor=#6C767D;fontSize=11;" parent="BfCgXnBFmum-YGEtXY9E-74" vertex="1">
          <mxGeometry x="1" width="90" height="40" relative="1" as="geometry">
            <mxPoint x="-90" as="offset" />
          </mxGeometry>
        </mxCell>
        <mxCell id="BfCgXnBFmum-YGEtXY9E-76" value="Suppliers" style="shape=table;startSize=30;container=1;collapsible=1;childLayout=tableLayout;fixedRows=1;rowLines=1;fontStyle=1;align=center;resizeLast=1;fillColor=#e1d5e7;strokeColor=#9673a6;resizeLastRow=0;absoluteArcSize=0;portConstraintRotation=0;snapToPoint=0;treeFolding=1;rounded=1;shadow=1;swimlaneFillColor=default;" parent="1" vertex="1">
          <mxGeometry x="-81" y="-47" width="241" height="120" as="geometry" />
        </mxCell>
        <mxCell id="BfCgXnBFmum-YGEtXY9E-77" value="" style="shape=tableRow;horizontal=0;startSize=0;swimlaneHead=0;swimlaneBody=0;fillColor=none;collapsible=0;dropTarget=0;points=[[0,0.5],[1,0.5]];portConstraint=eastwest;strokeColor=inherit;top=0;left=0;right=0;bottom=1;" parent="BfCgXnBFmum-YGEtXY9E-76" vertex="1">
          <mxGeometry y="30" width="241" height="30" as="geometry" />
        </mxCell>
        <mxCell id="BfCgXnBFmum-YGEtXY9E-78" value="PK" style="shape=partialRectangle;overflow=hidden;connectable=0;fillColor=none;strokeColor=inherit;top=0;left=0;bottom=0;right=0;fontStyle=1;" parent="BfCgXnBFmum-YGEtXY9E-77" vertex="1">
          <mxGeometry width="30" height="30" as="geometry">
            <mxRectangle width="30" height="30" as="alternateBounds" />
          </mxGeometry>
        </mxCell>
        <mxCell id="BfCgXnBFmum-YGEtXY9E-79" value="supplier_id int NOT NULL " style="shape=partialRectangle;overflow=hidden;connectable=0;fillColor=none;align=left;strokeColor=inherit;top=0;left=0;bottom=0;right=0;spacingLeft=6;fontStyle=5;" parent="BfCgXnBFmum-YGEtXY9E-77" vertex="1">
          <mxGeometry x="30" width="211" height="30" as="geometry">
            <mxRectangle width="211" height="30" as="alternateBounds" />
          </mxGeometry>
        </mxCell>
        <mxCell id="BfCgXnBFmum-YGEtXY9E-80" value="" style="shape=tableRow;horizontal=0;startSize=0;swimlaneHead=0;swimlaneBody=0;fillColor=none;collapsible=0;dropTarget=0;points=[[0,0.5],[1,0.5]];portConstraint=eastwest;strokeColor=inherit;top=0;left=0;right=0;bottom=0;" parent="BfCgXnBFmum-YGEtXY9E-76" vertex="1">
          <mxGeometry y="60" width="241" height="30" as="geometry" />
        </mxCell>
        <mxCell id="BfCgXnBFmum-YGEtXY9E-81" value="" style="shape=partialRectangle;overflow=hidden;connectable=0;fillColor=none;strokeColor=inherit;top=0;left=0;bottom=0;right=0;" parent="BfCgXnBFmum-YGEtXY9E-80" vertex="1">
          <mxGeometry width="30" height="30" as="geometry">
            <mxRectangle width="30" height="30" as="alternateBounds" />
          </mxGeometry>
        </mxCell>
        <mxCell id="BfCgXnBFmum-YGEtXY9E-82" value="supplier_name char(50) NOT NULL" style="shape=partialRectangle;overflow=hidden;connectable=0;fillColor=none;align=left;strokeColor=inherit;top=0;left=0;bottom=0;right=0;spacingLeft=6;" parent="BfCgXnBFmum-YGEtXY9E-80" vertex="1">
          <mxGeometry x="30" width="211" height="30" as="geometry">
            <mxRectangle width="211" height="30" as="alternateBounds" />
          </mxGeometry>
        </mxCell>
        <mxCell id="BfCgXnBFmum-YGEtXY9E-83" value="" style="shape=tableRow;horizontal=0;startSize=0;swimlaneHead=0;swimlaneBody=0;fillColor=none;collapsible=0;dropTarget=0;points=[[0,0.5],[1,0.5]];portConstraint=eastwest;strokeColor=inherit;top=0;left=0;right=0;bottom=0;" parent="BfCgXnBFmum-YGEtXY9E-76" vertex="1">
          <mxGeometry y="90" width="241" height="30" as="geometry" />
        </mxCell>
        <mxCell id="BfCgXnBFmum-YGEtXY9E-84" value="" style="shape=partialRectangle;overflow=hidden;connectable=0;fillColor=none;strokeColor=inherit;top=0;left=0;bottom=0;right=0;" parent="BfCgXnBFmum-YGEtXY9E-83" vertex="1">
          <mxGeometry width="30" height="30" as="geometry">
            <mxRectangle width="30" height="30" as="alternateBounds" />
          </mxGeometry>
        </mxCell>
        <mxCell id="BfCgXnBFmum-YGEtXY9E-85" value="contact_name char(50)" style="shape=partialRectangle;overflow=hidden;connectable=0;fillColor=none;align=left;strokeColor=inherit;top=0;left=0;bottom=0;right=0;spacingLeft=6;" parent="BfCgXnBFmum-YGEtXY9E-83" vertex="1">
          <mxGeometry x="30" width="211" height="30" as="geometry">
            <mxRectangle width="211" height="30" as="alternateBounds" />
          </mxGeometry>
        </mxCell>
        <mxCell id="BfCgXnBFmum-YGEtXY9E-125" style="rounded=0;orthogonalLoop=1;jettySize=auto;html=1;entryX=0.5;entryY=0;entryDx=0;entryDy=0;fontFamily=Helvetica;fontSize=12;fontColor=default;fontStyle=1;exitX=0.5;exitY=0;exitDx=0;exitDy=0;edgeStyle=orthogonalEdgeStyle;" parent="1" source="BfCgXnBFmum-YGEtXY9E-86" target="BfCgXnBFmum-YGEtXY9E-76" edge="1">
          <mxGeometry relative="1" as="geometry" />
        </mxCell>
        <mxCell id="BfCgXnBFmum-YGEtXY9E-86" value="Customers" style="shape=table;startSize=28;container=1;collapsible=1;childLayout=tableLayout;fixedRows=1;rowLines=0;fontStyle=1;align=center;resizeLast=1;fillColor=#E1D5E7;strokeColor=#9673a6;rounded=1;dashed=1;gradientColor=none;swimlaneFillColor=default;" parent="1" vertex="1">
          <mxGeometry x="360" y="-95.5" width="249" height="217" as="geometry" />
        </mxCell>
        <mxCell id="BfCgXnBFmum-YGEtXY9E-87" value="" style="shape=tableRow;horizontal=0;startSize=0;swimlaneHead=0;swimlaneBody=0;fillColor=none;collapsible=0;dropTarget=0;points=[[0,0.5],[1,0.5]];portConstraint=eastwest;strokeColor=inherit;top=0;left=0;right=0;bottom=1;" parent="BfCgXnBFmum-YGEtXY9E-86" vertex="1">
          <mxGeometry y="28" width="249" height="30" as="geometry" />
        </mxCell>
        <mxCell id="BfCgXnBFmum-YGEtXY9E-88" value="PK" style="shape=partialRectangle;overflow=hidden;connectable=0;fillColor=none;strokeColor=inherit;top=0;left=0;bottom=0;right=0;fontStyle=1;" parent="BfCgXnBFmum-YGEtXY9E-87" vertex="1">
          <mxGeometry width="40" height="30" as="geometry">
            <mxRectangle width="40" height="30" as="alternateBounds" />
          </mxGeometry>
        </mxCell>
        <mxCell id="BfCgXnBFmum-YGEtXY9E-89" value="customer_id int NOT NULL " style="shape=partialRectangle;overflow=hidden;connectable=0;fillColor=none;align=left;strokeColor=inherit;top=0;left=0;bottom=0;right=0;spacingLeft=6;fontStyle=5;" parent="BfCgXnBFmum-YGEtXY9E-87" vertex="1">
          <mxGeometry x="40" width="209" height="30" as="geometry">
            <mxRectangle width="209" height="30" as="alternateBounds" />
          </mxGeometry>
        </mxCell>
        <mxCell id="BfCgXnBFmum-YGEtXY9E-90" value="" style="shape=tableRow;horizontal=0;startSize=0;swimlaneHead=0;swimlaneBody=0;fillColor=none;collapsible=0;dropTarget=0;points=[[0,0.5],[1,0.5]];portConstraint=eastwest;strokeColor=inherit;top=0;left=0;right=0;bottom=0;" parent="BfCgXnBFmum-YGEtXY9E-86" vertex="1">
          <mxGeometry y="58" width="249" height="30" as="geometry" />
        </mxCell>
        <mxCell id="BfCgXnBFmum-YGEtXY9E-91" value="" style="shape=partialRectangle;overflow=hidden;connectable=0;fillColor=none;strokeColor=inherit;top=0;left=0;bottom=0;right=0;" parent="BfCgXnBFmum-YGEtXY9E-90" vertex="1">
          <mxGeometry width="40" height="30" as="geometry">
            <mxRectangle width="40" height="30" as="alternateBounds" />
          </mxGeometry>
        </mxCell>
        <mxCell id="BfCgXnBFmum-YGEtXY9E-92" value="customer_name char(50) NOT NULL" style="shape=partialRectangle;overflow=hidden;connectable=0;fillColor=none;align=left;strokeColor=inherit;top=0;left=0;bottom=0;right=0;spacingLeft=6;" parent="BfCgXnBFmum-YGEtXY9E-90" vertex="1">
          <mxGeometry x="40" width="209" height="30" as="geometry">
            <mxRectangle width="209" height="30" as="alternateBounds" />
          </mxGeometry>
        </mxCell>
        <mxCell id="BfCgXnBFmum-YGEtXY9E-93" value="" style="shape=tableRow;horizontal=0;startSize=0;swimlaneHead=0;swimlaneBody=0;fillColor=none;collapsible=0;dropTarget=0;points=[[0,0.5],[1,0.5]];portConstraint=eastwest;strokeColor=inherit;top=0;left=0;right=0;bottom=0;" parent="BfCgXnBFmum-YGEtXY9E-86" vertex="1">
          <mxGeometry y="88" width="249" height="30" as="geometry" />
        </mxCell>
        <mxCell id="BfCgXnBFmum-YGEtXY9E-94" value="" style="shape=partialRectangle;overflow=hidden;connectable=0;fillColor=none;strokeColor=inherit;top=0;left=0;bottom=0;right=0;" parent="BfCgXnBFmum-YGEtXY9E-93" vertex="1">
          <mxGeometry width="40" height="30" as="geometry">
            <mxRectangle width="40" height="30" as="alternateBounds" />
          </mxGeometry>
        </mxCell>
        <mxCell id="BfCgXnBFmum-YGEtXY9E-95" value="address char(50)" style="shape=partialRectangle;overflow=hidden;connectable=0;fillColor=none;align=left;strokeColor=inherit;top=0;left=0;bottom=0;right=0;spacingLeft=6;" parent="BfCgXnBFmum-YGEtXY9E-93" vertex="1">
          <mxGeometry x="40" width="209" height="30" as="geometry">
            <mxRectangle width="209" height="30" as="alternateBounds" />
          </mxGeometry>
        </mxCell>
        <mxCell id="BfCgXnBFmum-YGEtXY9E-96" value="" style="shape=tableRow;horizontal=0;startSize=0;swimlaneHead=0;swimlaneBody=0;fillColor=none;collapsible=0;dropTarget=0;points=[[0,0.5],[1,0.5]];portConstraint=eastwest;strokeColor=inherit;top=0;left=0;right=0;bottom=0;" parent="BfCgXnBFmum-YGEtXY9E-86" vertex="1">
          <mxGeometry y="118" width="249" height="30" as="geometry" />
        </mxCell>
        <mxCell id="BfCgXnBFmum-YGEtXY9E-97" value="" style="shape=partialRectangle;overflow=hidden;connectable=0;fillColor=none;strokeColor=inherit;top=0;left=0;bottom=0;right=0;" parent="BfCgXnBFmum-YGEtXY9E-96" vertex="1">
          <mxGeometry width="40" height="30" as="geometry">
            <mxRectangle width="40" height="30" as="alternateBounds" />
          </mxGeometry>
        </mxCell>
        <mxCell id="BfCgXnBFmum-YGEtXY9E-98" value="city char(50)" style="shape=partialRectangle;overflow=hidden;connectable=0;fillColor=none;align=left;strokeColor=inherit;top=0;left=0;bottom=0;right=0;spacingLeft=6;" parent="BfCgXnBFmum-YGEtXY9E-96" vertex="1">
          <mxGeometry x="40" width="209" height="30" as="geometry">
            <mxRectangle width="209" height="30" as="alternateBounds" />
          </mxGeometry>
        </mxCell>
        <mxCell id="BfCgXnBFmum-YGEtXY9E-99" value="" style="shape=tableRow;horizontal=0;startSize=0;swimlaneHead=0;swimlaneBody=0;fillColor=none;collapsible=0;dropTarget=0;points=[[0,0.5],[1,0.5]];portConstraint=eastwest;strokeColor=inherit;top=0;left=0;right=0;bottom=0;" parent="BfCgXnBFmum-YGEtXY9E-86" vertex="1">
          <mxGeometry y="148" width="249" height="30" as="geometry" />
        </mxCell>
        <mxCell id="BfCgXnBFmum-YGEtXY9E-100" value="" style="shape=partialRectangle;overflow=hidden;connectable=0;fillColor=none;strokeColor=inherit;top=0;left=0;bottom=0;right=0;" parent="BfCgXnBFmum-YGEtXY9E-99" vertex="1">
          <mxGeometry width="40" height="30" as="geometry">
            <mxRectangle width="40" height="30" as="alternateBounds" />
          </mxGeometry>
        </mxCell>
        <mxCell id="BfCgXnBFmum-YGEtXY9E-101" value="state char(25)" style="shape=partialRectangle;overflow=hidden;connectable=0;fillColor=none;align=left;strokeColor=inherit;top=0;left=0;bottom=0;right=0;spacingLeft=6;" parent="BfCgXnBFmum-YGEtXY9E-99" vertex="1">
          <mxGeometry x="40" width="209" height="30" as="geometry">
            <mxRectangle width="209" height="30" as="alternateBounds" />
          </mxGeometry>
        </mxCell>
        <mxCell id="BfCgXnBFmum-YGEtXY9E-102" value="" style="shape=tableRow;horizontal=0;startSize=0;swimlaneHead=0;swimlaneBody=0;fillColor=none;collapsible=0;dropTarget=0;points=[[0,0.5],[1,0.5]];portConstraint=eastwest;strokeColor=inherit;top=0;left=0;right=0;bottom=0;" parent="BfCgXnBFmum-YGEtXY9E-86" vertex="1">
          <mxGeometry y="178" width="249" height="30" as="geometry" />
        </mxCell>
        <mxCell id="BfCgXnBFmum-YGEtXY9E-103" value="" style="shape=partialRectangle;overflow=hidden;connectable=0;fillColor=none;strokeColor=inherit;top=0;left=0;bottom=0;right=0;" parent="BfCgXnBFmum-YGEtXY9E-102" vertex="1">
          <mxGeometry width="40" height="30" as="geometry">
            <mxRectangle width="40" height="30" as="alternateBounds" />
          </mxGeometry>
        </mxCell>
        <mxCell id="BfCgXnBFmum-YGEtXY9E-104" value="zip_code char(10)" style="shape=partialRectangle;overflow=hidden;connectable=0;fillColor=none;align=left;strokeColor=inherit;top=0;left=0;bottom=0;right=0;spacingLeft=6;" parent="BfCgXnBFmum-YGEtXY9E-102" vertex="1">
          <mxGeometry x="40" width="209" height="30" as="geometry">
            <mxRectangle width="209" height="30" as="alternateBounds" />
          </mxGeometry>
        </mxCell>
      </root>
    </mxGraphModel>
  </diagram>
  <diagram id="FWuLEgBujEWCU6KHYTPS" name="第 2 页">
    <mxGraphModel dx="1386" dy="757" grid="1" gridSize="10" guides="1" tooltips="1" connect="1" arrows="1" fold="1" page="1" pageScale="1" pageWidth="827" pageHeight="1169" math="0" shadow="0">
      <root>
        <mxCell id="0" />
        <mxCell id="1" parent="0" />
      </root>
    </mxGraphModel>
  </diagram>
</mxfile>
